<svg width="20" height="20" viewBox="0 0 20 20" fill="none" xmlns="http://www.w3.org/2000/svg">
<path d="M15.8333 15.8333H4.16667V4.16667H15.8333V15.8333ZM15.8333 2.5H4.16667C3.72464 2.5 3.30072 2.67559 2.98816 2.98816C2.67559 3.30072 2.5 3.72464 2.5 4.16667V15.8333C2.5 16.2754 2.67559 16.6993 2.98816 17.0118C3.30072 17.3244 3.72464 17.5 4.16667 17.5H15.8333C16.2754 17.5 16.6993 17.3244 17.0118 17.0118C17.3244 16.6993 17.5 16.2754 17.5 15.8333V4.16667C17.5 3.24167 16.75 2.5 15.8333 2.5ZM13.75 13.5417C13.75 12.2917 11.25 11.6667 10 11.6667C8.75 11.6667 6.25 12.2917 6.25 13.5417V14.1667H13.75V13.5417ZM10 10.2083C10.4973 10.2083 10.9742 10.0108 11.3258 9.65916C11.6775 9.30753 11.875 8.83061 11.875 8.33333C11.875 7.83605 11.6775 7.35914 11.3258 7.00751C10.9742 6.65588 10.4973 6.45833 10 6.45833C9.50272 6.45833 9.02581 6.65588 8.67417 7.00751C8.32254 7.35914 8.125 7.83605 8.125 8.33333C8.125 8.83061 8.32254 9.30753 8.67417 9.65916C9.02581 10.0108 9.50272 10.2083 10 10.2083Z" fill="#212529"/>
</svg>
