<svg width="20" height="21" viewBox="0 0 20 21" fill="none" xmlns="http://www.w3.org/2000/svg">
<path d="M15.8333 16.6669H4.16667V5.09171H15.8333V16.6669ZM15.8333 3.43811H4.16667C3.72464 3.43811 3.30072 3.61233 2.98816 3.92244C2.67559 4.23255 2.5 4.65315 2.5 5.09171V16.6669C2.5 17.1055 2.67559 17.5261 2.98816 17.8362C3.30072 18.1463 3.72464 18.3205 4.16667 18.3205H15.8333C16.2754 18.3205 16.6993 18.1463 17.0118 17.8362C17.3244 17.5261 17.5 17.1055 17.5 16.6669V5.09171C17.5 4.17396 16.75 3.43811 15.8333 3.43811ZM13.75 14.3932C13.75 13.153 11.25 12.5329 10 12.5329C8.75 12.5329 6.25 13.153 6.25 14.3932V15.0133H13.75V14.3932ZM10 11.086C10.4973 11.086 10.9742 10.89 11.3258 10.5412C11.6775 10.1923 11.875 9.71911 11.875 9.22572C11.875 8.73234 11.6775 8.25917 11.3258 7.91029C10.9742 7.56142 10.4973 7.36542 10 7.36542C9.50272 7.36542 9.02581 7.56142 8.67417 7.91029C8.32254 8.25917 8.125 8.73234 8.125 9.22572C8.125 9.71911 8.32254 10.1923 8.67417 10.5412C9.02581 10.89 9.50272 11.086 10 11.086Z" fill="#007BFF"/>
</svg>
