<svg width="623" height="832" viewBox="0 0 623 832" fill="none" xmlns="http://www.w3.org/2000/svg">
<path opacity="0.05" d="M430.826 831.178C521.195 795.147 592.471 716.956 615.354 614.645C636.264 521.268 612.446 427.532 558.018 356C571.417 474.011 497.118 580.281 387 610.63L402.367 688.088L402.588 688.039C420.66 684.773 438.206 696.859 441.743 714.929C445.326 733.043 433.528 750.365 415.498 753.585L415.452 753.542L430.78 831.134L430.826 831.178ZM456.489 610.431C454.844 605.795 457.279 600.809 461.849 599.291C466.461 597.727 471.496 600.247 473.183 604.836C473.332 605.233 473.438 605.676 473.544 606.118C474.371 610.326 471.998 614.6 467.87 616.02C463.258 617.583 458.181 615.109 456.582 610.518L456.489 610.431ZM469.107 644.944C467.419 640.354 469.896 635.322 474.466 633.804C479.078 632.241 484.113 634.76 485.8 639.349C485.949 639.747 486.055 640.189 486.161 640.632C486.989 644.839 484.615 649.113 480.487 650.533C475.875 652.096 470.798 649.622 469.199 645.031L469.107 644.944ZM481.724 679.457C480.079 674.822 482.514 669.835 487.083 668.317C491.695 666.754 496.729 669.273 498.417 673.862C498.566 674.26 498.672 674.702 498.778 675.145C499.605 679.352 497.232 683.626 493.104 685.046C488.492 686.609 483.415 684.135 481.816 679.544L481.724 679.457ZM494.34 713.97C492.653 709.38 495.13 704.348 499.7 702.83C504.312 701.267 509.347 703.786 511.034 708.375C511.183 708.773 511.289 709.215 511.395 709.658C512.222 713.865 509.849 718.139 505.721 719.559C501.109 721.122 496.032 718.648 494.433 714.057L494.34 713.97ZM518.246 753.985C513.634 755.548 508.556 753.074 506.958 748.483C505.27 743.893 507.748 738.861 512.317 737.343C516.929 735.78 521.964 738.299 523.651 742.888C523.8 743.286 523.906 743.728 524.012 744.171C524.84 748.378 522.466 752.652 518.338 754.072L518.246 753.985Z" fill="#802C8C"/>
<g clip-path="url(#clip0_1_12)">
<path opacity="0.1" d="M187.643 0C86.8366 55.7311 14.3003 156.921 1.87616 278.291C-9.50645 389.098 31.6346 493.202 105.436 567C73.1477 433.245 145.238 299.272 270 247.038L241.134 160.272H240.911C220.229 166.975 197.91 155.828 191.214 135.576C184.519 115.323 195.827 93.4679 216.509 86.9113H216.658L187.718 0H187.643ZM188.611 258.111C191.214 263.211 189.057 269.33 183.924 271.88C178.79 274.43 172.467 272.317 169.937 267.291C169.714 266.854 169.491 266.344 169.342 265.906C167.78 261.171 169.937 255.926 174.624 253.595C179.757 251.045 186.081 253.158 188.611 258.184V258.111ZM168.97 220.375C171.574 225.401 169.416 231.594 164.283 234.143C159.15 236.693 152.826 234.581 150.297 229.554C150.073 229.117 149.85 228.607 149.701 228.17C148.139 223.434 150.297 218.189 154.984 215.858C160.117 213.308 166.441 215.421 168.97 220.447V220.375ZM149.329 182.638C151.933 187.737 149.776 193.857 144.642 196.407C139.509 198.956 133.185 196.844 130.656 191.817C130.433 191.38 130.21 190.87 130.061 190.433C128.498 185.697 130.656 180.452 135.343 178.121C140.476 175.571 146.8 177.684 149.329 182.711V182.638ZM129.689 144.901C132.293 149.928 130.135 156.12 125.002 158.67C119.869 161.219 113.545 159.107 111.015 154.08C110.792 153.643 110.569 153.133 110.42 152.696C108.858 147.961 111.015 142.715 115.702 140.384C120.836 137.834 127.159 139.947 129.689 144.974V144.901ZM96.0617 102.574C101.195 100.025 107.519 102.137 110.048 107.164C112.652 112.191 110.495 118.383 105.361 120.933C100.228 123.483 93.9042 121.37 91.3747 116.343C91.1516 115.906 90.9284 115.396 90.7796 114.959C89.2172 110.224 91.3748 104.978 96.0617 102.647V102.574Z" fill="#00B3AB"/>
</g>
<defs>
<clipPath id="clip0_1_12">
<rect width="270" height="567" fill="white"/>
</clipPath>
</defs>
</svg>
