<svg width="20" height="20" viewBox="0 0 20 20" fill="none" xmlns="http://www.w3.org/2000/svg">
<path d="M5.83333 9.99996H7.5V11.6666H5.83333V9.99996ZM17.5 4.99996V16.6666C17.5 17.1087 17.3244 17.5326 17.0118 17.8451C16.6993 18.1577 16.2754 18.3333 15.8333 18.3333H4.16667C3.24167 18.3333 2.5 17.5833 2.5 16.6666V4.99996C2.5 4.55793 2.67559 4.13401 2.98816 3.82145C3.30072 3.50889 3.72464 3.33329 4.16667 3.33329H5V1.66663H6.66667V3.33329H13.3333V1.66663H15V3.33329H15.8333C16.2754 3.33329 16.6993 3.50889 17.0118 3.82145C17.3244 4.13401 17.5 4.55793 17.5 4.99996ZM4.16667 6.66663H15.8333V4.99996H4.16667V6.66663ZM15.8333 16.6666V8.33329H4.16667V16.6666H15.8333ZM12.5 11.6666V9.99996H14.1667V11.6666H12.5ZM9.16667 11.6666V9.99996H10.8333V11.6666H9.16667ZM5.83333 13.3333H7.5V15H5.83333V13.3333ZM12.5 15V13.3333H14.1667V15H12.5ZM9.16667 15V13.3333H10.8333V15H9.16667Z" fill="black"/>
</svg>
