<svg width="24" height="24" viewBox="0 0 24 24" fill="none" xmlns="http://www.w3.org/2000/svg">
<path id="Facebook icon" d="M23.5 12.067C23.5 17.5784 19.6426 22.196 14.5 23.3876V15.833H16.667H17.0934L17.1607 15.412L17.6937 12.079L17.7863 11.5H17.2H14.5V9.667C14.5 9.24277 14.579 8.97806 14.7236 8.8154C14.8581 8.66404 15.1416 8.5 15.8 8.5H17.333H17.833V8V4.933V4.50393L17.4089 4.43879C16.5454 4.30618 15.5761 4.167 14.667 4.167C13.1993 4.167 11.8988 4.6155 10.9621 5.5142C10.022 6.41612 9.5 7.722 9.5 9.333V11.5H7H6.5V12V15.333V15.833H7H9.5V23.3876C4.35738 22.1959 0.5 17.5775 0.5 12.067C0.5 5.70352 5.67876 0.5 12 0.5C18.3212 0.5 23.5 5.70352 23.5 12.067Z" fill="#B7BFCB" stroke="#B7BFCB"/>
</svg>
