<svg width="20" height="20" viewBox="0 0 20 20" fill="none" xmlns="http://www.w3.org/2000/svg">
<rect width="20" height="20" fill="#0052B4"/>
<path d="M18.125 20H20V18.125L11.875 10L20 1.875V0H18.125L10 8.125L1.875 0H0V1.875L8.125 10L0 18.125V20H1.875L10 11.875L18.125 20Z" fill="#EEEEEE"/>
<path d="M20 12.5V7.5H12.5V0H7.5V7.5H0V12.5H7.5V20H12.5V12.5H20Z" fill="#EEEEEE"/>
<path d="M20 11.25V8.75H11.25V0H8.75V8.75H0V11.25H8.75V20H11.25V11.25H20Z" fill="#DC3545"/>
<path d="M0 1.25V0L7.5 7.5H6.25L0 1.25Z" fill="#DC3545"/>
<path d="M20 18.75L20 20L12.5 12.5L13.75 12.5L20 18.75Z" fill="#DC3545"/>
<path d="M1.25 20L0 20L7.5 12.5L7.5 13.75L1.25 20Z" fill="#DC3545"/>
<path d="M18.75 -5.46392e-08L20 0L12.5 7.5L12.5 6.25L18.75 -5.46392e-08Z" fill="#DC3545"/>
</svg>
