<svg width="20" height="20" viewBox="0 0 20 20" fill="none" xmlns="http://www.w3.org/2000/svg">
    <g clip-path="url(#clip0_1530_1889)">
        <path d="M19.9895 10.1869C19.9895 9.36755 19.9214 8.76961 19.7742 8.14954H10.1992V11.8479H15.8195C15.7062 12.7669 15.0943 14.1511 13.7346 15.0811L13.7155 15.205L16.7429 17.4968L16.9527 17.5172C18.879 15.7788 19.9895 13.2209 19.9895 10.1869Z" fill="#4285F4"/>
        <path d="M10.1983 19.9313C12.9517 19.9313 15.2633 19.0454 16.9517 17.5174L13.7336 15.0813C12.8725 15.6682 11.7166 16.0779 10.1983 16.0779C7.50145 16.0779 5.21254 14.3395 4.39661 11.9366L4.27701 11.9466L1.12906 14.3273L1.08789 14.4391C2.7649 17.6945 6.20963 19.9313 10.1983 19.9313Z" fill="#34A853"/>
        <path d="M4.3965 11.9368C4.18121 11.3167 4.05661 10.6523 4.05661 9.96583C4.05661 9.27927 4.18121 8.61492 4.38517 7.99484L4.37947 7.86278L1.19206 5.44385L1.08778 5.49232C0.3966 6.84324 0 8.36026 0 9.96583C0 11.5714 0.3966 13.0883 1.08778 14.4393L4.3965 11.9368Z" fill="#FBBC05"/>
        <path d="M10.1983 3.85336C12.1132 3.85336 13.405 4.66168 14.1415 5.33717L17.0197 2.59107C15.2521 0.985496 12.9517 0 10.1983 0C6.20963 0 2.76491 2.23672 1.08789 5.49214L4.38529 7.99466C5.21254 5.59183 7.50145 3.85336 10.1983 3.85336Z" fill="#EB4335"/>
    </g>
    <defs>
        <clipPath id="clip0_1530_1889">
            <rect width="20" height="20" fill="white"/>
        </clipPath>
    </defs>
</svg>