<svg width="20" height="21" viewBox="0 0 20 21" fill="none" xmlns="http://www.w3.org/2000/svg">
<path d="M11.2487 7.2429H9.9987V11.3769L13.5654 13.477L14.1654 12.4766L11.2487 10.7568V7.2429ZM10.832 3.10889C8.84291 3.10889 6.93525 3.89287 5.52873 5.28837C4.12221 6.68387 3.33203 8.57657 3.33203 10.5501H0.832031L4.13203 13.8821L7.4987 10.5501H4.9987C4.9987 9.01514 5.61328 7.54303 6.70724 6.45765C7.8012 5.37226 9.28493 4.76249 10.832 4.76249C12.3791 4.76249 13.8629 5.37226 14.9568 6.45765C16.0508 7.54303 16.6654 9.01514 16.6654 10.5501C16.6654 12.0851 16.0508 13.5572 14.9568 14.6426C13.8629 15.728 12.3791 16.3377 10.832 16.3377C9.2237 16.3377 7.76536 15.6846 6.71536 14.6345L5.53203 15.8086C6.89036 17.1645 8.7487 17.9913 10.832 17.9913C12.8212 17.9913 14.7288 17.2073 16.1353 15.8118C17.5419 14.4163 18.332 12.5236 18.332 10.5501C18.332 8.57657 17.5419 6.68387 16.1353 5.28837C14.7288 3.89287 12.8212 3.10889 10.832 3.10889Z" fill="#212529"/>
</svg>
