<svg width="22" height="22" viewBox="0 0 22 22" fill="none" xmlns="http://www.w3.org/2000/svg">
<g id="Instagram">
<mask id="path-1-inside-1_1183_1085" fill="white">
<path fill-rule="evenodd" clip-rule="evenodd" d="M0 11C0 6.60594 0 4.40891 1.04707 2.82645C1.51463 2.11981 2.11981 1.51463 2.82645 1.04707C4.40891 0 6.60594 0 11 0C15.3941 0 17.5911 0 19.1735 1.04707C19.8802 1.51463 20.4854 2.11981 20.9529 2.82645C22 4.40891 22 6.60594 22 11C22 15.3941 22 17.5911 20.9529 19.1735C20.4854 19.8802 19.8802 20.4854 19.1735 20.9529C17.5911 22 15.3941 22 11 22C6.60594 22 4.40891 22 2.82645 20.9529C2.11981 20.4854 1.51463 19.8802 1.04707 19.1735C0 17.5911 0 15.3941 0 11ZM16.6951 11.0004C16.6951 14.1456 14.1455 16.6952 11.0003 16.6952C7.85511 16.6952 5.30545 14.1456 5.30545 11.0004C5.30545 7.85525 7.85511 5.30558 11.0003 5.30558C14.1455 5.30558 16.6951 7.85525 16.6951 11.0004ZM11.0003 14.7685C13.0814 14.7685 14.7684 13.0815 14.7684 11.0004C14.7684 8.91934 13.0814 7.2323 11.0003 7.2323C8.91921 7.2323 7.23217 8.91934 7.23217 11.0004C7.23217 13.0815 8.91921 14.7685 11.0003 14.7685ZM16.92 6.35751C17.659 6.35751 18.2581 5.75841 18.2581 5.01939C18.2581 4.28037 17.659 3.68127 16.92 3.68127C16.181 3.68127 15.5819 4.28037 15.5819 5.01939C15.5819 5.75841 16.181 6.35751 16.92 6.35751Z"/>
</mask>
<path fill-rule="evenodd" clip-rule="evenodd" d="M0 11C0 6.60594 0 4.40891 1.04707 2.82645C1.51463 2.11981 2.11981 1.51463 2.82645 1.04707C4.40891 0 6.60594 0 11 0C15.3941 0 17.5911 0 19.1735 1.04707C19.8802 1.51463 20.4854 2.11981 20.9529 2.82645C22 4.40891 22 6.60594 22 11C22 15.3941 22 17.5911 20.9529 19.1735C20.4854 19.8802 19.8802 20.4854 19.1735 20.9529C17.5911 22 15.3941 22 11 22C6.60594 22 4.40891 22 2.82645 20.9529C2.11981 20.4854 1.51463 19.8802 1.04707 19.1735C0 17.5911 0 15.3941 0 11ZM16.6951 11.0004C16.6951 14.1456 14.1455 16.6952 11.0003 16.6952C7.85511 16.6952 5.30545 14.1456 5.30545 11.0004C5.30545 7.85525 7.85511 5.30558 11.0003 5.30558C14.1455 5.30558 16.6951 7.85525 16.6951 11.0004ZM11.0003 14.7685C13.0814 14.7685 14.7684 13.0815 14.7684 11.0004C14.7684 8.91934 13.0814 7.2323 11.0003 7.2323C8.91921 7.2323 7.23217 8.91934 7.23217 11.0004C7.23217 13.0815 8.91921 14.7685 11.0003 14.7685ZM16.92 6.35751C17.659 6.35751 18.2581 5.75841 18.2581 5.01939C18.2581 4.28037 17.659 3.68127 16.92 3.68127C16.181 3.68127 15.5819 4.28037 15.5819 5.01939C15.5819 5.75841 16.181 6.35751 16.92 6.35751Z" fill="#000000"/>
<path d="M1.04707 2.82645L0.98443 2.78501L1.04707 2.82645ZM2.82645 1.04707L2.78501 0.98443L2.82645 1.04707ZM19.1735 1.04707L19.1321 1.1097L19.1735 1.04707ZM20.9529 2.82645L21.0156 2.78501V2.78501L20.9529 2.82645ZM20.9529 19.1735L20.8903 19.1321L20.9529 19.1735ZM19.1735 20.9529L19.1321 20.8903L19.1735 20.9529ZM2.82645 20.9529L2.78501 21.0156H2.78501L2.82645 20.9529ZM1.04707 19.1735L1.1097 19.1321L1.04707 19.1735ZM0.98443 2.78501C0.451414 3.59057 0.187634 4.54912 0.0561557 5.85133C-0.075197 7.1523 -0.0751076 8.80452 -0.0751076 11H0.0751076C0.0751076 8.80142 0.075197 7.15809 0.205611 5.86642C0.3359 4.57599 0.595654 3.6448 1.1097 2.8679L0.98443 2.78501ZM2.78501 0.98443C2.06995 1.45757 1.45757 2.06995 0.98443 2.78501L1.1097 2.8679C1.5717 2.16967 2.16967 1.5717 2.8679 1.1097L2.78501 0.98443ZM11 -0.0751076C8.80452 -0.0751076 7.1523 -0.075197 5.85133 0.0561557C4.54912 0.187634 3.59057 0.451414 2.78501 0.98443L2.8679 1.1097C3.6448 0.595654 4.57599 0.3359 5.86642 0.205611C7.15809 0.075197 8.80142 0.0751076 11 0.0751076V-0.0751076ZM19.215 0.98443C18.4094 0.451414 17.4509 0.187634 16.1487 0.0561557C14.8477 -0.075197 13.1955 -0.0751076 11 -0.0751076V0.0751076C13.1986 0.0751076 14.8419 0.075197 16.1336 0.205611C17.424 0.3359 18.3552 0.595654 19.1321 1.1097L19.215 0.98443ZM21.0156 2.78501C20.5424 2.06995 19.9301 1.45757 19.215 0.98443L19.1321 1.1097C19.8303 1.5717 20.4283 2.16967 20.8903 2.8679L21.0156 2.78501ZM22.0751 11C22.0751 8.80452 22.0752 7.1523 21.9438 5.85133C21.8124 4.54912 21.5486 3.59057 21.0156 2.78501L20.8903 2.8679C21.4043 3.6448 21.6641 4.57599 21.7944 5.86642C21.9248 7.15809 21.9249 8.80142 21.9249 11H22.0751ZM21.0156 19.215C21.5486 18.4094 21.8124 17.4509 21.9438 16.1487C22.0752 14.8477 22.0751 13.1955 22.0751 11H21.9249C21.9249 13.1986 21.9248 14.8419 21.7944 16.1336C21.6641 17.424 21.4043 18.3552 20.8903 19.1321L21.0156 19.215ZM19.215 21.0156C19.9301 20.5424 20.5424 19.9301 21.0156 19.215L20.8903 19.1321C20.4283 19.8303 19.8303 20.4283 19.1321 20.8903L19.215 21.0156ZM11 22.0751C13.1955 22.0751 14.8477 22.0752 16.1487 21.9438C17.4509 21.8124 18.4094 21.5486 19.215 21.0156L19.1321 20.8903C18.3552 21.4043 17.424 21.6641 16.1336 21.7944C14.8419 21.9248 13.1986 21.9249 11 21.9249V22.0751ZM2.78501 21.0156C3.59057 21.5486 4.54912 21.8124 5.85133 21.9438C7.1523 22.0752 8.80452 22.0751 11 22.0751V21.9249C8.80142 21.9249 7.15809 21.9248 5.86642 21.7944C4.57599 21.6641 3.6448 21.4043 2.8679 20.8903L2.78501 21.0156ZM0.98443 19.215C1.45757 19.9301 2.06995 20.5424 2.78501 21.0156L2.8679 20.8903C2.16967 20.4283 1.5717 19.8303 1.1097 19.1321L0.98443 19.215ZM-0.0751076 11C-0.0751076 13.1955 -0.075197 14.8477 0.0561557 16.1487C0.187634 17.4509 0.451414 18.4094 0.98443 19.215L1.1097 19.1321C0.595654 18.3552 0.3359 17.424 0.205611 16.1336C0.075197 14.8419 0.0751076 13.1986 0.0751076 11H-0.0751076ZM11.0003 16.7704C14.1869 16.7704 16.7702 14.1871 16.7702 11.0004H16.62C16.62 14.1041 14.104 16.6201 11.0003 16.6201V16.7704ZM5.23034 11.0004C5.23034 14.1871 7.81363 16.7704 11.0003 16.7704V16.6201C7.8966 16.6201 5.38056 14.1041 5.38056 11.0004H5.23034ZM11.0003 5.23047C7.81363 5.23047 5.23034 7.81377 5.23034 11.0004H5.38056C5.38056 7.89673 7.8966 5.38069 11.0003 5.38069V5.23047ZM16.7702 11.0004C16.7702 7.81377 14.1869 5.23047 11.0003 5.23047V5.38069C14.104 5.38069 16.62 7.89673 16.62 11.0004H16.7702ZM14.6933 11.0004C14.6933 13.04 13.0399 14.6934 11.0003 14.6934V14.8436C13.1228 14.8436 14.8435 13.123 14.8435 11.0004H14.6933ZM11.0003 7.30741C13.0399 7.30741 14.6933 8.96082 14.6933 11.0004H14.8435C14.8435 8.87786 13.1228 7.15719 11.0003 7.15719V7.30741ZM7.30728 11.0004C7.30728 8.96082 8.96069 7.30741 11.0003 7.30741V7.15719C8.87773 7.15719 7.15706 8.87786 7.15706 11.0004H7.30728ZM11.0003 14.6934C8.96069 14.6934 7.30728 13.04 7.30728 11.0004H7.15706C7.15706 13.123 8.87773 14.8436 11.0003 14.8436V14.6934ZM18.183 5.01939C18.183 5.71693 17.6175 6.2824 16.92 6.2824V6.43262C17.7005 6.43262 18.3332 5.79989 18.3332 5.01939H18.183ZM16.92 3.75638C17.6175 3.75638 18.183 4.32185 18.183 5.01939H18.3332C18.3332 4.23889 17.7005 3.60617 16.92 3.60617V3.75638ZM15.657 5.01939C15.657 4.32185 16.2224 3.75638 16.92 3.75638V3.60617C16.1395 3.60617 15.5068 4.23889 15.5068 5.01939H15.657ZM16.92 6.2824C16.2224 6.2824 15.657 5.71693 15.657 5.01939H15.5068C15.5068 5.79989 16.1395 6.43262 16.92 6.43262V6.2824Z" fill="#000000" mask="url(#path-1-inside-1_1183_1085)"/>
</g>
</svg>
