<svg width="12" height="17" viewBox="0 0 12 17" fill="none" xmlns="http://www.w3.org/2000/svg">
<path d="M6 0C2.68286 0 0 2.6605 0 5.95C0 10.4125 6 17 6 17C6 17 12 10.4125 12 5.95C12 2.6605 9.31714 0 6 0ZM1.71429 5.95C1.71429 3.604 3.63429 1.7 6 1.7C8.36572 1.7 10.2857 3.604 10.2857 5.95C10.2857 8.398 7.81714 12.0615 6 14.348C4.21714 12.0785 1.71429 8.3725 1.71429 5.95Z" fill="#F8F9FA"/>
<path d="M6 8.075C7.18347 8.075 8.14286 7.12361 8.14286 5.95C8.14286 4.77639 7.18347 3.825 6 3.825C4.81653 3.825 3.85714 4.77639 3.85714 5.95C3.85714 7.12361 4.81653 8.075 6 8.075Z" fill="#F8F9FA"/>
</svg>
