<svg width="16" height="23" viewBox="0 0 16 23" fill="none" xmlns="http://www.w3.org/2000/svg">
    <path d="M8 0C3.57714 0 0 3.54733 0 7.93333C0 13.8833 8 22.6667 8 22.6667C8 22.6667 16 13.8833 16 7.93333C16 3.54733 12.4229 0 8 0ZM2.28571 7.93333C2.28571 4.80533 4.84571 2.26667 8 2.26667C11.1543 2.26667 13.7143 4.80533 13.7143 7.93333C13.7143 11.1973 10.4229 16.082 8 19.1307C5.62286 16.1047 2.28571 11.1633 2.28571 7.93333Z" fill="#212529"/>
    <path d="M8 10.7667C9.57796 10.7667 10.8571 9.49814 10.8571 7.93333C10.8571 6.36853 9.57796 5.1 8 5.1C6.42204 5.1 5.14286 6.36853 5.14286 7.93333C5.14286 9.49814 6.42204 10.7667 8 10.7667Z" fill="#212529"/>
</svg>