<svg width="20" height="21" viewBox="0 0 20 21" fill="none" xmlns="http://www.w3.org/2000/svg">
<path d="M11.7333 13.531L13.8917 11.3896H5.83333V9.736H13.8917L11.7333 7.59458L12.9167 6.42879L17.0833 10.5628L12.9167 14.6968L11.7333 13.531ZM15.8333 3.12158C16.2754 3.12158 16.6993 3.2958 17.0118 3.60591C17.3244 3.91602 17.5 4.33662 17.5 4.77519V8.63636L15.8333 6.98275V4.77519H4.16667V16.3504H15.8333V14.1429L17.5 12.4893V16.3504C17.5 16.789 17.3244 17.2096 17.0118 17.5197C16.6993 17.8298 16.2754 18.004 15.8333 18.004H4.16667C3.24167 18.004 2.5 17.2599 2.5 16.3504V4.77519C2.5 3.85744 3.24167 3.12158 4.16667 3.12158H15.8333Z" fill="black"/>
</svg>
