<svg width="117" height="45" viewBox="0 0 117 45" fill="none" xmlns="http://www.w3.org/2000/svg">
<path d="M4.63965 17.07C5.56696 21.5497 8.62798 25.533 13.2285 27.5158C17.4269 29.3224 22.0184 29.0786 25.8297 27.225C20.1878 26.7697 15.8364 22.3957 15.3442 17.0582H11.587V17.0729C11.587 17.9336 10.8757 18.6298 9.99643 18.6298C9.11714 18.6298 8.4059 17.9336 8.4059 17.0729V17.067H4.63965V17.07ZM14.762 20.2543C14.9901 20.219 15.2062 20.3747 15.2392 20.6009C15.2722 20.8271 15.1131 21.0356 14.8851 21.0709C14.8641 21.0738 14.843 21.0768 14.822 21.0768C14.618 21.0768 14.4379 20.9299 14.4049 20.7243C14.3719 20.4981 14.5279 20.2895 14.759 20.2543H14.762ZM13.0394 20.5216C13.2675 20.4863 13.4836 20.642 13.5166 20.8682C13.5496 21.0944 13.3906 21.303 13.1625 21.3382C13.1415 21.3411 13.1205 21.3441 13.0995 21.3441C12.8954 21.3441 12.7153 21.1972 12.6823 20.9916C12.6493 20.7654 12.8054 20.5568 13.0364 20.5216H13.0394ZM11.3169 20.7889C11.545 20.7536 11.761 20.9093 11.794 21.1355C11.827 21.3617 11.668 21.5703 11.4399 21.6055C11.4189 21.6085 11.3979 21.6114 11.3769 21.6114C11.1728 21.6114 10.9928 21.4645 10.9598 21.2589C10.9267 21.0327 11.0828 20.8241 11.3139 20.7889H11.3169ZM9.5943 21.0562C9.82238 21.021 10.0384 21.1766 10.0715 21.4028C10.1045 21.629 9.94542 21.8376 9.71734 21.8728C9.69633 21.8758 9.67533 21.8787 9.65432 21.8787C9.45025 21.8787 9.27019 21.7318 9.23718 21.5262C9.20417 21.3 9.36022 21.0915 9.5913 21.0562H9.5943ZM7.51761 21.7935C7.4846 21.5673 7.64065 21.3588 7.87173 21.3235C8.0998 21.2883 8.31587 21.444 8.34888 21.6701C8.3819 21.8963 8.22284 22.1049 7.99477 22.1402C7.97376 22.1431 7.95275 22.146 7.93175 22.146C7.72768 22.146 7.54762 21.9992 7.51461 21.7935H7.51761Z" fill="#F8991D"/>
<path d="M25.3495 2.33826C21.2831 4.58547 18.3571 8.66569 17.856 13.5596C17.3968 18.0276 19.0564 22.2253 22.0333 25.201C20.7309 19.8077 23.6389 14.4056 28.6716 12.2994L27.5072 8.80082H27.4982C26.6639 9.07107 25.7636 8.62163 25.4935 7.805C25.2234 6.98836 25.6796 6.10711 26.5138 5.84273H26.5198L25.3525 2.33826H25.3495ZM25.3885 12.7459C25.4935 12.9515 25.4065 13.1983 25.1994 13.3011C24.9923 13.4039 24.7372 13.3187 24.6352 13.116C24.6262 13.0984 24.6172 13.0779 24.6112 13.0602C24.5482 12.8693 24.6352 12.6578 24.8243 12.5638C25.0313 12.461 25.2864 12.5462 25.3885 12.7489V12.7459ZM24.5962 11.2243C24.7012 11.427 24.6142 11.6767 24.4071 11.7795C24.2001 11.8823 23.945 11.7971 23.8429 11.5944C23.8339 11.5768 23.8249 11.5562 23.8189 11.5386C23.7559 11.3477 23.8429 11.1362 24.032 11.0422C24.2391 10.9393 24.4942 11.0245 24.5962 11.2272V11.2243ZM23.8039 9.70264C23.909 9.90827 23.8219 10.155 23.6149 10.2578C23.4078 10.3606 23.1527 10.2755 23.0507 10.0728C23.0417 10.0551 23.0327 10.0346 23.0267 10.017C22.9637 9.82602 23.0507 9.61451 23.2397 9.52051C23.4468 9.4177 23.7019 9.50289 23.8039 9.70558V9.70264ZM23.0117 8.181C23.1167 8.38369 23.0297 8.63338 22.8226 8.73619C22.6155 8.83901 22.3605 8.75382 22.2584 8.55113C22.2494 8.5335 22.2404 8.51294 22.2344 8.49532C22.1714 8.30438 22.2584 8.09287 22.4475 7.99887C22.6546 7.89606 22.9096 7.98125 23.0117 8.18394V8.181ZM21.6552 6.4743C21.8623 6.37148 22.1174 6.45667 22.2194 6.65936C22.3244 6.86205 22.2374 7.11174 22.0303 7.21455C21.8233 7.31737 21.5682 7.23218 21.4662 7.02949C21.4572 7.01186 21.4482 6.9913 21.4421 6.97368C21.3791 6.78274 21.4662 6.57123 21.6552 6.47723V6.4743Z" fill="#00B3AB"/>
<path d="M46.0625 17.0699C42.6234 13.9797 37.7527 12.5168 32.8431 13.5596C28.3596 14.5143 24.7944 17.3549 22.8228 21.0444C27.6604 18.1656 33.8064 19.2026 37.4106 23.2358L40.4476 21.0709L40.4416 21.065C39.9255 20.3688 40.0815 19.3965 40.7927 18.8912C41.504 18.3859 42.4973 18.5387 43.0135 19.2349V19.2408L46.0595 17.0729L46.0625 17.0699ZM35.9641 20.3218C35.7991 20.4833 35.532 20.4804 35.3699 20.3188C35.2079 20.1573 35.2109 19.8958 35.3759 19.7343C35.3909 19.7196 35.4059 19.7049 35.424 19.6932C35.589 19.5756 35.8231 19.5903 35.9701 19.7372C36.1322 19.8988 36.1322 20.1602 35.9641 20.3188V20.3218ZM37.1975 19.1145C37.0325 19.276 36.7654 19.2731 36.6033 19.1115C36.4413 18.95 36.4443 18.6885 36.6093 18.527C36.6244 18.5123 36.6394 18.4976 36.6574 18.4858C36.8224 18.3683 37.0565 18.383 37.2035 18.5299C37.3656 18.6915 37.3656 18.9529 37.1975 19.1115V19.1145ZM38.431 17.9071C38.2659 18.0687 37.9988 18.0658 37.8368 17.9042C37.6747 17.7426 37.6777 17.4812 37.8428 17.3196C37.8578 17.3049 37.8728 17.2903 37.8908 17.2785C38.0558 17.161 38.2899 17.1757 38.437 17.3226C38.599 17.4841 38.599 17.7456 38.431 17.9042V17.9071ZM39.6644 16.6998C39.5023 16.8614 39.2322 16.8584 39.0702 16.6969C38.9081 16.5353 38.9111 16.2739 39.0762 16.1123C39.0912 16.0976 39.1062 16.0829 39.1242 16.0712C39.2892 15.9537 39.5233 15.9684 39.6704 16.1152C39.8324 16.2768 39.8324 16.5382 39.6644 16.6969V16.6998ZM40.9038 14.9109C41.0658 15.0724 41.0658 15.3339 40.8978 15.4925C40.7357 15.654 40.4656 15.6511 40.3036 15.4895C40.1415 15.328 40.1445 15.0665 40.3096 14.905C40.3246 14.8903 40.3396 14.8756 40.3576 14.8639C40.5227 14.7464 40.7567 14.761 40.9038 14.9079V14.9109Z" fill="#107EC2"/>
<path d="M12.5474 40.9083C17.1869 41.4312 22.0035 39.8126 25.3496 36.1407C28.4046 32.789 29.584 28.4385 28.9628 24.3201C26.7781 29.4314 21.1812 32.131 15.8455 30.9413L14.6871 34.4428H14.6961C15.5304 34.7101 15.9895 35.5884 15.7164 36.408C15.4463 37.2246 14.546 37.6741 13.7118 37.4068H13.7057L12.5474 40.9083ZM18.7654 32.4658C18.8014 32.2396 19.0205 32.0869 19.2486 32.1251C19.4767 32.1633 19.6327 32.3748 19.5937 32.601C19.5907 32.6215 19.5847 32.6421 19.5787 32.6597C19.5157 32.8507 19.3176 32.9711 19.1075 32.9388C18.8795 32.9006 18.7234 32.6891 18.7624 32.4629L18.7654 32.4658ZM18.4923 34.152C18.5284 33.9258 18.7474 33.773 18.9755 33.8112C19.2036 33.8494 19.3596 34.0609 19.3206 34.2871C19.3176 34.3077 19.3116 34.3282 19.3056 34.3459C19.2426 34.5368 19.0445 34.6572 18.8345 34.6249C18.6064 34.5867 18.4503 34.3752 18.4893 34.149L18.4923 34.152ZM18.2193 35.8381C18.2553 35.6119 18.4743 35.4592 18.7024 35.4974C18.9305 35.5356 19.0865 35.7471 19.0475 35.9732C19.0445 35.9938 19.0385 36.0144 19.0325 36.032C18.9695 36.2229 18.7714 36.3434 18.5614 36.3111C18.3333 36.2729 18.1772 36.0614 18.2163 35.8352L18.2193 35.8381ZM17.9462 37.5243C17.9822 37.2981 18.2012 37.1453 18.4293 37.1835C18.6574 37.2217 18.8135 37.4332 18.7744 37.6594C18.7714 37.6799 18.7654 37.7005 18.7594 37.7181C18.6964 37.9091 18.4983 38.0295 18.2883 37.9972C18.0602 37.959 17.9041 37.7475 17.9432 37.5213L17.9462 37.5243ZM18.0182 39.6863C17.7901 39.6481 17.6341 39.4366 17.6731 39.2104C17.7091 38.9842 17.9282 38.8344 18.1562 38.8696C18.3843 38.9078 18.5404 39.1193 18.5013 39.3455C18.4983 39.3661 18.4923 39.3867 18.4863 39.4043C18.4233 39.5952 18.2253 39.7157 18.0152 39.6833L18.0182 39.6863Z" fill="#D21787"/>
<path d="M53.0185 19.6842C52.5443 19.6842 52.1572 19.8311 51.8541 20.119C51.551 20.4098 51.3979 20.7535 51.3979 21.15C51.3979 21.573 51.551 21.9285 51.8541 22.2193C52.1572 22.5101 52.5443 22.6541 53.0185 22.6541C53.4926 22.6541 53.8948 22.5042 54.1919 22.2075C54.489 21.9109 54.636 21.5495 54.636 21.1265C54.636 20.7035 54.483 20.3569 54.1799 20.0867C53.8768 19.8164 53.4866 19.6813 53.0155 19.6813L53.0185 19.6842Z" fill="#020001"/>
<path d="M54.276 24.4017H51.7642V34.9856H54.276V24.4017Z" fill="#020001"/>
<path d="M61.9887 33.0851C61.5026 33.0851 61.1244 32.947 60.8544 32.668C60.5843 32.3918 60.4492 32.0011 60.4492 31.4988V26.4639H63.3662V24.4811H60.4492V22.0635H57.9374V24.4811H56.1548V26.4639H57.9374V31.5781C57.9374 32.7414 58.2615 33.6227 58.9097 34.2248C59.5579 34.827 60.4762 35.1267 61.6646 35.1267C62.1088 35.1267 62.5499 35.0679 62.9821 34.9475C63.4142 34.83 63.7863 34.6508 64.0954 34.4128L63.3662 32.6474C63.0031 32.9382 62.5439 33.0821 61.9887 33.0821V33.0851Z" fill="#020001"/>
<path d="M67.4565 19.6842C66.9823 19.6842 66.5952 19.8311 66.2921 20.119C65.989 20.4098 65.8359 20.7535 65.8359 21.15C65.8359 21.573 65.989 21.9285 66.2921 22.2193C66.5952 22.5101 66.9823 22.6541 67.4565 22.6541C67.9306 22.6541 68.3328 22.5042 68.6299 22.2075C68.927 21.9109 69.074 21.5495 69.074 21.1265C69.074 20.7035 68.921 20.3569 68.6179 20.0867C68.3148 19.8164 67.9246 19.6813 67.4535 19.6813L67.4565 19.6842Z" fill="#020001"/>
<path d="M68.7111 24.4017H66.1992V34.9856H68.7111V24.4017Z" fill="#020001"/>
<path d="M81.5909 24.4017H78.857L76.1951 27.8475L73.5512 24.4017H70.7153L74.7696 29.5894L70.5532 34.9886H73.3682L76.1621 31.3431L78.917 34.9886H81.792L77.5426 29.5718L81.5909 24.4017Z" fill="#020001"/>
<path d="M84.4662 31.837C83.992 31.837 83.5959 31.9869 83.2718 32.2835C82.9477 32.5802 82.7856 32.9739 82.7856 33.4615C82.7856 33.9491 82.9477 34.3516 83.2718 34.66C83.5959 34.9714 83.995 35.1271 84.4662 35.1271C84.9104 35.1271 85.2975 34.9714 85.6216 34.66C85.9457 34.3486 86.1078 33.9491 86.1078 33.4615C86.1078 32.9739 85.9457 32.5802 85.6216 32.2835C85.2975 31.9869 84.9134 31.837 84.4662 31.837Z" fill="#020001"/>
<path d="M96.6951 25.7969C96.341 25.3827 95.9178 25.0508 95.4287 24.8099C94.6934 24.4457 93.8651 24.2635 92.9468 24.2635C91.9085 24.2635 90.9752 24.4751 90.1529 24.8981C89.3306 25.3211 88.6764 25.9203 88.1992 26.6929C87.7191 27.4655 87.479 28.3673 87.479 29.3984C87.479 30.4294 87.7191 31.3077 88.1992 32.0744C88.6794 32.8411 89.3306 33.4404 90.1529 33.8693C90.9752 34.2981 91.9085 34.5126 92.9468 34.5126C93.8651 34.5126 94.6904 34.3275 95.4287 33.9574C95.8638 33.74 96.2449 33.4521 96.572 33.0996V33.6607C96.572 34.7447 96.2959 35.5525 95.7408 36.09C95.1856 36.6247 94.3243 36.892 93.1479 36.892C92.3796 36.892 91.6354 36.7745 90.9212 36.5365C90.2039 36.2986 89.6127 35.9872 89.1386 35.6053L88.0042 37.4501C88.6254 37.9524 89.4056 38.3314 90.342 38.5899C91.2813 38.8484 92.2566 38.9776 93.2679 38.9776C95.1586 38.9776 96.602 38.5253 97.6014 37.6205C98.6007 36.7157 99.0989 35.3057 99.0989 33.3875V24.4075H96.6891V25.7999L96.6951 25.7969ZM96.1999 30.9552C95.9238 31.4106 95.5337 31.7689 95.0355 32.0245C94.5374 32.283 93.9702 32.4123 93.334 32.4123C92.6977 32.4123 92.1306 32.283 91.6234 32.0245C91.1162 31.766 90.7261 31.4106 90.45 30.9552C90.1739 30.4999 90.0359 29.98 90.0359 29.3984C90.0359 28.8167 90.1739 28.2615 90.45 27.8121C90.7261 27.3626 91.1192 27.0131 91.6234 26.7604C92.1306 26.5108 92.7007 26.3844 93.334 26.3844C93.9672 26.3844 94.5344 26.5108 95.0355 26.7604C95.5337 27.0131 95.9238 27.3626 96.1999 27.8121C96.476 28.2615 96.6141 28.7903 96.6141 29.3984C96.6141 30.0064 96.476 30.4999 96.1999 30.9552Z" fill="#020001"/>
<path d="M111.883 26.8603C111.409 26.0408 110.764 25.4033 109.939 24.948C109.116 24.4927 108.177 24.2635 107.124 24.2635C106.07 24.2635 105.083 24.4986 104.237 24.9686C103.393 25.4386 102.73 26.0789 102.253 26.8897C101.773 27.7034 101.533 28.6375 101.533 29.695C101.533 30.7525 101.779 31.6867 102.271 32.5004C102.763 33.3141 103.459 33.9545 104.357 34.4245C105.254 34.8945 106.304 35.1295 107.505 35.1295C108.45 35.1295 109.29 34.9855 110.026 34.6947C110.761 34.4039 111.379 33.9809 111.877 33.4257L110.5 31.8806C110.122 32.2654 109.689 32.5533 109.203 32.753C108.717 32.9528 108.171 33.0497 107.562 33.0497C106.847 33.0497 106.217 32.9146 105.677 32.6443C105.137 32.3741 104.723 31.9951 104.432 31.5046C104.249 31.1961 104.132 30.8583 104.063 30.494H112.54C112.552 30.3883 112.564 30.2649 112.57 30.1269C112.576 29.9888 112.579 29.8713 112.579 29.7802C112.579 28.6581 112.342 27.6858 111.871 26.8662L111.883 26.8603ZM104.39 27.771C104.645 27.2951 105.014 26.9279 105.494 26.6723C105.974 26.4138 106.517 26.2846 107.124 26.2846C107.73 26.2846 108.285 26.4138 108.744 26.6723C109.203 26.9308 109.563 27.2921 109.827 27.7621C110.011 28.0912 110.125 28.4525 110.173 28.8432H104.051C104.108 28.4554 104.216 28.0941 104.39 27.7739V27.771Z" fill="#020001"/>
<path d="M38.1516 40.9082C40.0932 36.7516 40.0092 31.7666 37.4764 27.519C35.1656 23.6414 31.3033 21.1974 27.1079 20.5042C31.3993 24.1173 32.2906 30.1627 29.4847 34.7629L32.5277 36.922L32.5337 36.9132C33.0499 36.217 34.0462 36.0642 34.7545 36.5695C35.4657 37.0747 35.6217 38.05 35.1056 38.7433H35.1026L38.1486 40.9082H38.1516ZM31.8705 32.5098C31.6634 32.4041 31.5854 32.1544 31.6934 31.9546C31.8015 31.7519 32.0566 31.6756 32.2636 31.7784C32.2816 31.7872 32.2996 31.7989 32.3176 31.8107C32.4827 31.9282 32.5397 32.1515 32.4437 32.3336C32.3357 32.5363 32.0806 32.6156 31.8765 32.5098H31.8705ZM33.425 33.2853C33.2179 33.1825 33.1399 32.9299 33.248 32.7301C33.356 32.5275 33.6111 32.4511 33.8181 32.5539C33.8362 32.5627 33.8542 32.5745 33.8722 32.5862C34.0372 32.7037 34.0942 32.927 33.9982 33.1091C33.8902 33.3118 33.6351 33.3911 33.431 33.2853H33.425ZM34.9795 34.0608C34.7725 33.9551 34.6944 33.7054 34.8025 33.5056C34.9105 33.303 35.1656 33.2266 35.3727 33.3294C35.3907 33.3382 35.4087 33.35 35.4267 33.3617C35.5917 33.4792 35.6488 33.7025 35.5527 33.8846C35.4447 34.0873 35.1896 34.1666 34.9855 34.0608H34.9795ZM36.5341 34.8363C36.327 34.7335 36.249 34.4809 36.357 34.2812C36.465 34.0785 36.7201 34.0021 36.9272 34.1049C36.9452 34.1137 36.9632 34.1255 36.9812 34.1372C37.1463 34.2547 37.2033 34.478 37.1072 34.6601C36.9992 34.8628 36.7441 34.9421 36.5401 34.8363H36.5341ZM38.6558 35.4356C38.5477 35.6383 38.2926 35.7176 38.0886 35.6119C37.8815 35.509 37.8035 35.2564 37.9115 35.0567C38.0195 34.854 38.2746 34.7776 38.4817 34.8804C38.4997 34.8892 38.5177 34.901 38.5357 34.9127C38.7008 35.0302 38.7578 35.2535 38.6618 35.4356H38.6558Z" fill="#802C8C"/>
</svg>
