<svg width="20" height="20" viewBox="0 0 20 20" fill="none" xmlns="http://www.w3.org/2000/svg">
<path fill-rule="evenodd" clip-rule="evenodd" d="M9.9987 3.33337C8.15703 3.33337 6.66536 4.82504 6.66536 6.66671C6.66536 8.50837 8.15703 10 9.9987 10C11.8404 10 13.332 8.50837 13.332 6.66671C13.332 4.82504 11.8404 3.33337 9.9987 3.33337ZM11.6654 6.66671C11.6654 5.75004 10.9154 5.00004 9.9987 5.00004C9.08203 5.00004 8.33203 5.75004 8.33203 6.66671C8.33203 7.58337 9.08203 8.33337 9.9987 8.33337C10.9154 8.33337 11.6654 7.58337 11.6654 6.66671ZM14.9987 14.1667C14.832 13.575 12.2487 12.5 9.9987 12.5C7.7487 12.5 5.16536 13.575 4.9987 14.175V15H14.9987V14.1667ZM3.33203 14.1667C3.33203 11.95 7.7737 10.8334 9.9987 10.8334C12.2237 10.8334 16.6654 11.95 16.6654 14.1667V16.6667H3.33203V14.1667Z" fill="#1C1B1F"/>
</svg>
