<svg width="13" height="19" viewBox="0 0 13 19" fill="none" xmlns="http://www.w3.org/2000/svg">
<path d="M6.36735 0.5C2.84711 0.5 0 3.317 0 6.8C0 11.525 6.36735 18.5 6.36735 18.5C6.36735 18.5 12.7347 11.525 12.7347 6.8C12.7347 3.317 9.88758 0.5 6.36735 0.5ZM1.81924 6.8C1.81924 4.316 3.85679 2.3 6.36735 2.3C8.8779 2.3 10.9155 4.316 10.9155 6.8C10.9155 9.392 8.29574 13.271 6.36735 15.692C4.47534 13.289 1.81924 9.365 1.81924 6.8Z" fill="#6C757D"/>
<path d="M6.36735 9.05C7.62327 9.05 8.6414 8.04264 8.6414 6.8C8.6414 5.55736 7.62327 4.55 6.36735 4.55C5.11142 4.55 4.09329 5.55736 4.09329 6.8C4.09329 8.04264 5.11142 9.05 6.36735 9.05Z" fill="#6C757D"/>
</svg>
