<svg width="20" height="20" viewBox="0 0 20 20" fill="none" xmlns="http://www.w3.org/2000/svg">
<g id="cog-outline">
<path id="Vector" d="M9.9984 6.66663C10.8825 6.66663 11.7303 7.01782 12.3554 7.64294C12.9805 8.26806 13.3317 9.1159 13.3317 9.99996C13.3317 10.884 12.9805 11.7319 12.3554 12.357C11.7303 12.9821 10.8825 13.3333 9.9984 13.3333C9.11435 13.3333 8.2665 12.9821 7.64138 12.357C7.01626 11.7319 6.66507 10.884 6.66507 9.99996C6.66507 9.1159 7.01626 8.26806 7.64138 7.64294C8.2665 7.01782 9.11435 6.66663 9.9984 6.66663ZM9.9984 8.33329C9.55637 8.33329 9.13245 8.50889 8.81989 8.82145C8.50733 9.13401 8.33173 9.55793 8.33173 9.99996C8.33173 10.442 8.50733 10.8659 8.81989 11.1785C9.13245 11.491 9.55637 11.6666 9.9984 11.6666C10.4404 11.6666 10.8644 11.491 11.1769 11.1785C11.4895 10.8659 11.6651 10.442 11.6651 9.99996C11.6651 9.55793 11.4895 9.13401 11.1769 8.82145C10.8644 8.50889 10.4404 8.33329 9.9984 8.33329ZM8.33173 18.3333C8.1234 18.3333 7.9484 18.1833 7.91507 17.9833L7.60673 15.775C7.08173 15.5666 6.63173 15.2833 6.1984 14.95L4.1234 15.7916C3.94007 15.8583 3.71507 15.7916 3.61507 15.6083L1.9484 12.725C1.84007 12.5416 1.89007 12.3166 2.0484 12.1916L3.80673 10.8083L3.7484 9.99996L3.80673 9.16663L2.0484 7.80829C1.89007 7.68329 1.84007 7.45829 1.9484 7.27496L3.61507 4.39163C3.71507 4.20829 3.94007 4.13329 4.1234 4.20829L6.1984 5.04163C6.63173 4.71663 7.08173 4.43329 7.60673 4.22496L7.91507 2.01663C7.9484 1.81663 8.1234 1.66663 8.33173 1.66663H11.6651C11.8734 1.66663 12.0484 1.81663 12.0817 2.01663L12.3901 4.22496C12.9151 4.43329 13.3651 4.71663 13.7984 5.04163L15.8734 4.20829C16.0567 4.13329 16.2817 4.20829 16.3817 4.39163L18.0484 7.27496C18.1567 7.45829 18.1067 7.68329 17.9484 7.80829L16.1901 9.16663L16.2484 9.99996L16.1901 10.8333L17.9484 12.1916C18.1067 12.3166 18.1567 12.5416 18.0484 12.725L16.3817 15.6083C16.2817 15.7916 16.0567 15.8666 15.8734 15.7916L13.7984 14.9583C13.3651 15.2833 12.9151 15.5666 12.3901 15.775L12.0817 17.9833C12.0484 18.1833 11.8734 18.3333 11.6651 18.3333H8.33173ZM9.3734 3.33329L9.06507 5.50829C8.06507 5.71663 7.18173 6.24996 6.54007 6.99163L4.53173 6.12496L3.90673 7.20829L5.66507 8.49996C5.33173 9.47496 5.33173 10.5333 5.66507 11.5L3.8984 12.8L4.5234 13.8833L6.5484 13.0166C7.19007 13.75 8.06507 14.2833 9.05673 14.4833L9.36507 16.6666H10.6317L10.9401 14.4916C11.9317 14.2833 12.8067 13.75 13.4484 13.0166L15.4734 13.8833L16.0984 12.8L14.3317 11.5083C14.6651 10.5333 14.6651 9.47496 14.3317 8.49996L16.0901 7.20829L15.4651 6.12496L13.4567 6.99163C12.8151 6.24996 11.9317 5.71663 10.9317 5.51663L10.6234 3.33329H9.3734Z" fill="#007BFF"/>
</g>
</svg>
