<svg width="20" height="21" viewBox="0 0 20 21" fill="none" xmlns="http://www.w3.org/2000/svg">
<path d="M9.9984 6.91382C10.8825 6.91382 11.7303 7.26226 12.3554 7.88248C12.9805 8.5027 13.3317 9.3439 13.3317 10.221C13.3317 11.0982 12.9805 11.9394 12.3554 12.5596C11.7303 13.1798 10.8825 13.5282 9.9984 13.5282C9.11435 13.5282 8.2665 13.1798 7.64138 12.5596C7.01626 11.9394 6.66507 11.0982 6.66507 10.221C6.66507 9.3439 7.01626 8.5027 7.64138 7.88248C8.2665 7.26226 9.11435 6.91382 9.9984 6.91382V6.91382ZM9.9984 8.56742C9.55637 8.56742 9.13245 8.74164 8.81989 9.05175C8.50733 9.36186 8.33173 9.78247 8.33173 10.221C8.33173 10.6596 8.50733 11.0802 8.81989 11.3903C9.13245 11.7004 9.55637 11.8746 9.9984 11.8746C10.4404 11.8746 10.8644 11.7004 11.1769 11.3903C11.4895 11.0802 11.6651 10.6596 11.6651 10.221C11.6651 9.78247 11.4895 9.36186 11.1769 9.05175C10.8644 8.74164 10.4404 8.56742 9.9984 8.56742ZM8.33173 18.4891C8.1234 18.4891 7.9484 18.3402 7.91507 18.1418L7.60673 15.9508C7.08173 15.7441 6.63173 15.463 6.1984 15.1322L4.1234 15.9673C3.94007 16.0335 3.71507 15.9673 3.61507 15.7854L1.9484 12.9247C1.84007 12.7428 1.89007 12.5195 2.0484 12.3955L3.80673 11.023L3.7484 10.221L3.80673 9.39423L2.0484 8.04654C1.89007 7.92252 1.84007 7.69928 1.9484 7.51738L3.61507 4.65665C3.71507 4.47475 3.94007 4.40034 4.1234 4.47475L6.1984 5.30155C6.63173 4.9791 7.08173 4.69799 7.60673 4.49129L7.91507 2.30026C7.9484 2.10183 8.1234 1.953 8.33173 1.953H11.6651C11.8734 1.953 12.0484 2.10183 12.0817 2.30026L12.3901 4.49129C12.9151 4.69799 13.3651 4.9791 13.7984 5.30155L15.8734 4.47475C16.0567 4.40034 16.2817 4.47475 16.3817 4.65665L18.0484 7.51738C18.1567 7.69928 18.1067 7.92252 17.9484 8.04654L16.1901 9.39423L16.2484 10.221L16.1901 11.0478L17.9484 12.3955C18.1067 12.5195 18.1567 12.7428 18.0484 12.9247L16.3817 15.7854C16.2817 15.9673 16.0567 16.0417 15.8734 15.9673L13.7984 15.1405C13.3651 15.463 12.9151 15.7441 12.3901 15.9508L12.0817 18.1418C12.0484 18.3402 11.8734 18.4891 11.6651 18.4891H8.33173ZM9.3734 3.60661L9.06507 5.76456C8.06507 5.97126 7.18173 6.50042 6.54007 7.23627L4.53173 6.3764L3.90673 7.45124L5.66507 8.73278C5.33173 9.70014 5.33173 10.7502 5.66507 11.7093L3.8984 12.9991L4.5234 14.0739L6.5484 13.2141C7.19007 13.9416 8.06507 14.4708 9.05673 14.6692L9.36507 16.8354H10.6317L10.9401 14.6775C11.9317 14.4708 12.8067 13.9416 13.4484 13.2141L15.4734 14.0739L16.0984 12.9991L14.3317 11.7175C14.6651 10.7502 14.6651 9.70014 14.3317 8.73278L16.0901 7.45124L15.4651 6.3764L13.4567 7.23627C12.8151 6.50042 11.9317 5.97126 10.9317 5.77283L10.6234 3.60661H9.3734Z" fill="#212529"/>
</svg>
