<svg width="20" height="20" viewBox="0 0 20 20" fill="none" xmlns="http://www.w3.org/2000/svg">
<path d="M8.33464 10.8334C6.10964 10.8334 1.66797 11.9417 1.66797 14.1667V16.6667H10.9096C10.893 16.55 10.8763 16.4417 10.868 16.325C10.8346 16.1667 10.8346 16 10.8346 15.8334C10.8346 15.575 10.8596 15.325 10.9013 15.0834C11.0096 14.3417 11.2846 13.65 11.668 13.05C11.843 12.8167 12.018 12.6 12.2096 12.4L12.2263 12.375C12.418 12.175 12.6346 11.9917 12.8596 11.825C12.3013 11.5667 11.668 11.3667 11.0513 11.2084C10.0596 10.9584 9.0763 10.8334 8.33464 10.8334ZM9.20964 15.0834H3.2513V14.1667C3.2513 13.6334 5.85964 12.4167 8.33464 12.4167C8.9013 12.4167 9.46797 12.5 10.0013 12.5917C9.58464 13.3334 9.31797 14.1667 9.20964 15.0834ZM8.33464 10C10.1763 10 11.668 8.50837 11.668 6.66671C11.668 4.82504 10.1763 3.33337 8.33464 3.33337C6.49297 3.33337 5.0013 4.82504 5.0013 6.66671C5.0013 8.50837 6.49297 10 8.33464 10ZM8.33464 5.00004C9.25964 5.00004 10.0013 5.75004 10.0013 6.66671C10.0013 7.58337 9.25964 8.33337 8.33464 8.33337C7.40964 8.33337 6.66797 7.59171 6.66797 6.66671C6.66797 5.74171 7.41797 5.00004 8.33464 5.00004ZM16.668 18.3334V16.6667H13.3346V15H16.668V13.3334L19.168 15.8334L16.668 18.3334Z" fill="#007BFF"/>
</svg>
