<svg width="20" height="21" viewBox="0 0 20 21" fill="none" xmlns="http://www.w3.org/2000/svg">
<path d="M8.33464 11.7187C6.10964 11.7187 1.66797 12.8183 1.66797 15.0259V17.5063H10.9096C10.893 17.3906 10.8763 17.2831 10.868 17.1673C10.8346 17.0102 10.8346 16.8449 10.8346 16.6795C10.8346 16.4232 10.8596 16.1752 10.9013 15.9354C11.0096 15.1995 11.2846 14.5133 11.668 13.918C11.843 13.6865 12.018 13.4715 12.2096 13.2731L12.2263 13.2483C12.418 13.0498 12.6346 12.8679 12.8596 12.7026C12.3013 12.4463 11.668 12.2478 11.0513 12.0908C10.0596 11.8427 9.0763 11.7187 8.33464 11.7187ZM9.20964 15.9354H3.2513V15.0259C3.2513 14.4967 5.85964 13.2896 8.33464 13.2896C8.9013 13.2896 9.46797 13.3723 10.0013 13.4632C9.58464 14.1991 9.31797 15.0259 9.20964 15.9354ZM8.33464 10.8919C10.1763 10.8919 11.668 9.41191 11.668 7.58468C11.668 5.75744 10.1763 4.27747 8.33464 4.27747C6.49297 4.27747 5.0013 5.75744 5.0013 7.58468C5.0013 9.41191 6.49297 10.8919 8.33464 10.8919ZM8.33464 5.93107C9.25964 5.93107 10.0013 6.67519 10.0013 7.58468C10.0013 8.49416 9.25964 9.23828 8.33464 9.23828C7.40964 9.23828 6.66797 8.50243 6.66797 7.58468C6.66797 6.66693 7.41797 5.93107 8.33464 5.93107ZM16.668 19.1599V17.5063H13.3346V15.8527H16.668V14.1991L19.168 16.6795L16.668 19.1599Z" fill="#212529"/>
</svg>
