<svg width="259" height="573" viewBox="0 0 259 573" fill="none" xmlns="http://www.w3.org/2000/svg">
<path opacity="0.1" d="M130.056 0.0265269C42.0218 74.3092 -9.43614 187.68 1.99583 309.148C12.3938 420.051 73.0071 514.159 159.758 572.185C102.059 447.27 146.7 301.83 258.912 226.315L213.713 146.826L213.495 146.869C194.512 157.468 170.451 150.878 159.942 132.316C149.433 113.753 156.272 90.1151 175.283 79.6591L175.429 79.6301L130.129 0.0120483L130.056 0.0265269ZM181.233 253.015C184.78 257.511 183.854 263.933 179.315 267.433C174.776 270.933 168.163 270.091 164.703 265.653C164.399 265.268 164.081 264.811 163.85 264.411C161.396 260.07 162.492 254.505 166.635 251.307C171.174 247.807 177.788 248.648 181.248 253.087L181.233 253.015ZM154.625 219.822C158.157 224.246 157.246 230.74 152.707 234.24C148.168 237.74 141.554 236.898 138.094 232.46C137.791 232.074 137.472 231.617 137.241 231.218C134.787 226.877 135.883 221.312 140.027 218.113C144.566 214.613 151.18 215.455 154.639 219.893L154.625 219.822ZM128.016 186.629C131.562 191.124 130.637 197.546 126.098 201.046C121.559 204.546 114.945 203.705 111.486 199.266C111.182 198.881 110.864 198.424 110.633 198.024C108.179 193.684 109.274 188.119 113.418 184.92C117.957 181.42 124.571 182.262 128.03 186.7L128.016 186.629ZM101.407 153.435C104.94 157.859 104.028 164.353 99.4893 167.853C94.9503 171.353 88.3364 170.511 84.877 166.073C84.5731 165.688 84.2549 165.231 84.0239 164.831C81.5699 160.49 82.6655 154.925 86.8092 151.727C91.3482 148.227 97.9621 149.068 101.421 153.507L101.407 153.435ZM60.1863 118.462C64.7253 114.962 71.3392 115.803 74.7985 120.242C78.3308 124.666 77.4196 131.16 72.8806 134.66C68.3416 138.16 61.7276 137.318 58.2683 132.879C57.9643 132.494 57.6462 132.037 57.4152 131.638C54.9612 127.297 56.0568 121.732 60.2005 118.533L60.1863 118.462Z" fill="#00B3AB"/>
</svg>
