<svg width="220" height="492" viewBox="0 0 220 492" fill="none" xmlns="http://www.w3.org/2000/svg">
<path opacity="0.05" d="M110.009 491.224C184.818 429.028 228.439 332.636 218.581 228.261C209.609 132.994 157.986 51.2087 84.1152 0C133.33 108.092 95.513 232.122 0.165738 295.019L38.7197 363.935L38.9143 363.82C55.0929 355.129 75.5154 361.201 84.4636 377.293C93.4691 393.413 87.6028 413.532 71.4508 422.168L71.3935 422.141L109.951 491.197L110.009 491.224ZM66.1916 273.353C63.1946 269.453 63.9691 263.958 67.8456 261.102C71.7487 258.19 77.3155 259.03 80.3391 262.873C80.6032 263.205 80.8406 263.593 81.0781 263.981C83.1657 267.727 82.2297 272.525 78.7425 275.151C74.8394 278.063 69.246 277.28 66.3063 273.407L66.1916 273.353ZM88.8577 302.277C85.834 298.433 86.6352 292.882 90.5116 290.026C94.4148 287.114 99.9815 287.954 103.005 291.797C103.269 292.129 103.507 292.517 103.744 292.905C105.832 296.651 104.896 301.449 101.409 304.075C97.5054 306.987 91.912 306.204 88.9724 302.331L88.8577 302.277ZM111.524 331.201C108.527 327.301 109.301 321.806 113.178 318.95C117.081 316.038 122.648 316.877 125.671 320.721C125.935 321.053 126.173 321.441 126.41 321.829C128.498 325.574 127.562 330.373 124.075 332.999C120.172 335.911 114.578 335.128 111.638 331.255L111.524 331.201ZM134.19 360.125C131.166 356.281 131.967 350.73 135.844 347.874C139.747 344.962 145.314 345.801 148.337 349.645C148.601 349.977 148.839 350.365 149.076 350.753C151.164 354.498 150.228 359.296 146.741 361.923C142.838 364.835 137.244 364.052 134.304 360.179L134.19 360.125ZM169.292 390.792C165.389 393.705 159.795 392.921 156.856 389.049C153.832 385.205 154.633 379.654 158.51 376.798C162.413 373.886 167.98 374.725 171.003 378.569C171.267 378.9 171.505 379.289 171.742 379.677C173.83 383.422 172.894 388.22 169.407 390.847L169.292 390.792Z" fill="#802C8C"/>
</svg>
