<svg width="29" height="22" viewBox="0 0 29 22" fill="none" xmlns="http://www.w3.org/2000/svg">
<path id="Youtube icon" d="M27.1942 2.671L27.1942 2.67107L27.201 2.67792C27.5437 3.02292 27.8047 3.63765 27.9809 4.23488C28.0656 4.52192 28.1249 4.7842 28.1629 4.97466C28.1819 5.06962 28.1954 5.14601 28.2041 5.19785C28.2085 5.22375 28.2116 5.24347 28.2136 5.25626L28.2155 5.26924L28.2156 5.26971L28.2157 5.27012L28.2179 5.28888L28.2268 5.36542C28.2345 5.43286 28.2457 5.5323 28.259 5.65917C28.2858 5.91296 28.3215 6.27617 28.3572 6.71212C28.4288 7.58536 28.5 8.74451 28.5 9.89837V12.096C28.5 13.2527 28.4288 14.4119 28.3572 15.2844C28.3215 15.7199 28.2858 16.0826 28.259 16.3359C28.2457 16.4626 28.2346 16.5618 28.2268 16.6291L28.2179 16.7054L28.2157 16.7243L28.2156 16.7246L28.2155 16.7251L28.2136 16.7381C28.2116 16.7509 28.2085 16.7706 28.2041 16.7965C28.1954 16.8484 28.1819 16.9248 28.1629 17.0197C28.1249 17.2102 28.0656 17.4725 27.9809 17.7595C27.8047 18.3567 27.5437 18.9715 27.201 19.3165L27.2009 19.3164L27.1942 19.3234C26.332 20.2254 25.4049 20.3185 24.7884 20.3804C24.7228 20.387 24.6609 20.3933 24.6028 20.4001C22.5904 20.543 20.0693 20.6177 18.0446 20.6565C17.0314 20.6759 16.1446 20.6863 15.5112 20.6919C15.1946 20.6947 14.9413 20.6963 14.7673 20.6971L14.5678 20.698L14.5163 20.6981L14.5033 20.6982L14.5001 20.6982L14.4993 20.6982L14.4991 20.6981L14.483 20.698L14.4197 20.6974L14.177 20.6948C13.9666 20.6926 13.6635 20.689 13.2924 20.6841C12.5501 20.6743 11.5365 20.6589 10.4505 20.6367C8.28384 20.5922 5.85705 20.5208 4.70887 20.4137C4.56492 20.387 4.40712 20.3669 4.23949 20.3456C3.50207 20.2517 2.5746 20.1336 1.80011 19.3234L1.80015 19.3233L1.79451 19.3176C1.45394 18.9726 1.1941 18.3576 1.01851 17.76C0.934134 17.4729 0.87499 17.2105 0.837015 17.0199C0.818083 16.9249 0.804552 16.8485 0.795871 16.7966C0.791533 16.7707 0.788415 16.751 0.786446 16.7382L0.78448 16.7252L0.784421 16.7247L0.782124 16.7055L0.773197 16.629C0.765461 16.5615 0.754347 16.4621 0.740979 16.3352C0.714236 16.0814 0.678507 15.7182 0.642761 15.2823C0.571162 14.409 0.5 13.2499 0.5 12.096V9.89837C0.5 8.74487 0.572536 7.58601 0.645527 6.71292C0.681967 6.27705 0.71839 5.91392 0.74565 5.66019C0.759277 5.53335 0.770606 5.43393 0.77849 5.36653L0.787587 5.29002L0.789927 5.27087L0.790167 5.26893L0.790192 5.26876L0.792246 5.25491C0.794177 5.24214 0.797239 5.22243 0.801506 5.19653C0.810045 5.14472 0.823378 5.06835 0.842088 4.97342C0.879618 4.78301 0.93822 4.5208 1.0222 4.23386C1.19697 3.63672 1.45666 3.02252 1.79903 2.67792L1.7991 2.67799L1.80577 2.671C2.66795 1.76903 3.5951 1.67588 4.21165 1.61394C4.27729 1.60734 4.33941 1.6011 4.39756 1.59427C6.40938 1.44858 8.92872 1.37532 10.952 1.33861C11.9644 1.32025 12.8504 1.31106 13.4832 1.30647C13.7996 1.30417 14.0526 1.30303 14.2264 1.30245L14.4258 1.30195L14.4771 1.30189L14.4901 1.30188L14.4933 1.30188L14.4941 1.30188H14.4943L14.4943 0.80188V1.30188H14.5057V0.80188L14.5057 1.30188H14.5059L14.5067 1.30188L14.5099 1.30188L14.5229 1.30189L14.5742 1.30195L14.7736 1.30245C14.9474 1.30303 15.2004 1.30417 15.5168 1.30647C16.1496 1.31106 17.0356 1.32025 18.048 1.33861C20.0713 1.37532 22.5906 1.44858 24.6024 1.59427C24.6606 1.6011 24.7227 1.60734 24.7884 1.61394C25.4049 1.67588 26.332 1.76903 27.1942 2.671ZM11.0037 14.7638V15.5862L11.7338 15.2077L19.5672 11.1466L20.4205 10.7042L19.5685 10.2594L11.7351 6.16997L11.0037 5.78815V6.61321V14.7638Z" fill="#000000" stroke="#000000"/>
</svg>
